<svg width="32" height="32" viewBox="0 0 32 32" fill="none" xmlns="http://www.w3.org/2000/svg">
<path d="M26.9509 23.2373C26.9509 23.2231 26.9633 23.2118 26.9781 23.2118C26.9929 23.2118 27.0053 23.2231 27.0053 23.2373C27.0053 23.2516 26.9929 23.2629 26.9781 23.2629C26.9633 23.2629 26.9509 23.2516 26.9509 23.2373ZM16.9047 15.1937C16.9047 14.7405 16.4975 14.3735 15.9951 14.3735C15.4927 14.3735 15.0855 14.7405 15.0855 15.1937C15.0855 15.6469 15.4927 16.0139 15.9951 16.0139C16.4975 16.0139 16.9047 15.6469 16.9047 15.1937ZM19.2459 15.6421C19.2459 15.1889 18.8387 14.8219 18.3363 14.8219C17.8339 14.8219 17.4266 15.1889 17.4266 15.6421C17.4266 16.0953 17.8339 16.4623 18.3363 16.4623C18.8387 16.4623 19.2459 16.0953 19.2459 15.6421ZM21.1822 16.9108C21.1822 16.4576 20.775 16.0905 20.2726 16.0905C19.7702 16.0905 19.3629 16.4576 19.3629 16.9108C19.3629 17.3639 19.7702 17.731 20.2726 17.731C20.775 17.731 21.1822 17.3639 21.1822 16.9108ZM22.3785 18.7799C22.3785 18.3267 21.9713 17.9596 21.4689 17.9596C20.9665 17.9596 20.5592 18.3267 20.5592 18.7799C20.5592 19.233 20.9665 19.6001 21.4689 19.6001C21.9713 19.6001 22.3785 19.233 22.3785 18.7799ZM22.6291 20.9257C22.6291 20.4726 22.2219 20.1055 21.7195 20.1055C21.2171 20.1055 20.8098 20.4726 20.8098 20.9257C20.8098 21.3789 21.2171 21.7459 21.7195 21.7459C22.2219 21.7459 22.6291 21.3789 22.6291 20.9257ZM11.165 20.9257C11.165 20.4809 10.7648 20.1198 10.2713 20.1198C9.77778 20.1198 9.37763 20.4809 9.37763 20.9257C9.37763 21.3706 9.77778 21.7317 10.2713 21.7317C10.7648 21.7317 11.165 21.3706 11.165 20.9257ZM11.4203 18.7799C11.4203 18.332 11.0178 17.9691 10.5213 17.9691C10.0248 17.9691 9.62233 18.332 9.62233 18.7799C9.62233 19.2277 10.0248 19.5906 10.5213 19.5906C11.0178 19.5906 11.4203 19.2277 11.4203 18.7799ZM12.6219 16.9108C12.6219 16.4606 12.2171 16.0953 11.7176 16.0953C11.2182 16.0953 10.8133 16.4606 10.8133 16.9108C10.8133 17.361 11.2182 17.7262 11.7176 17.7262C12.2171 17.7262 12.6219 17.361 12.6219 16.9108ZM14.5582 15.6421C14.5582 15.1919 14.1534 14.8266 13.6539 14.8266C13.1545 14.8266 12.7496 15.1919 12.7496 15.6421C12.7496 16.0923 13.1545 16.4576 13.6539 16.4576C14.1534 16.4576 14.5582 16.0923 14.5582 15.6421ZM16.7558 13.4636C16.7558 13.0846 16.4153 12.7776 15.9951 12.7776C15.5749 12.7776 15.2344 13.0846 15.2344 13.4636C15.2344 13.8425 15.5749 14.1496 15.9951 14.1496C16.4153 14.1496 16.7558 13.8425 16.7558 13.4636ZM19.1271 13.8021C19.1271 13.4232 18.7867 13.1161 18.3664 13.1161C17.9462 13.1161 17.6057 13.4232 17.6057 13.8021C17.6057 14.181 17.9462 14.4881 18.3664 14.4881C18.7867 14.4881 19.1271 14.181 19.1271 13.8021ZM21.2667 14.7851C21.2667 14.4061 20.9263 14.0991 20.506 14.0991C20.0858 14.0991 19.7454 14.4061 19.7454 14.7851C19.7454 15.164 20.0858 15.4711 20.506 15.4711C20.9263 15.4711 21.2667 15.164 21.2667 14.7851ZM22.9642 16.3162C22.9642 15.9373 22.6238 15.6302 22.2036 15.6302C21.7833 15.6302 21.4429 15.9373 21.4429 16.3162C21.4429 16.6952 21.7833 17.0022 22.2036 17.0022C22.6238 17.0022 22.9642 16.6952 22.9642 16.3162ZM24.0547 18.2453C24.0547 17.8664 23.7143 17.5593 23.2941 17.5593C22.8738 17.5593 22.5334 17.8664 22.5334 18.2453C22.5334 18.6242 22.8738 18.9313 23.2941 18.9313C23.7143 18.9313 24.0547 18.6242 24.0547 18.2453ZM24.4301 20.3835C24.4301 20.0045 24.0896 19.6975 23.6694 19.6975C23.2491 19.6975 22.9087 20.0045 22.9087 20.3835C22.9087 20.7624 23.2491 21.0695 23.6694 21.0695C24.0896 21.0695 24.4301 20.7624 24.4301 20.3835ZM9.06555 20.3835C9.06555 20.0123 8.7322 19.7117 8.32082 19.7117C7.90944 19.7117 7.57609 20.0123 7.57609 20.3835C7.57609 20.7547 7.90944 21.0552 8.32082 21.0552C8.7322 21.0552 9.06555 20.7547 9.06555 20.3835ZM9.44678 18.2453C9.44678 17.8717 9.11106 17.5688 8.69673 17.5688C8.2824 17.5688 7.94668 17.8717 7.94668 18.2453C7.94668 18.6189 8.2824 18.9218 8.69673 18.9218C9.11106 18.9218 9.44678 18.6189 9.44678 18.2453ZM10.5367 16.3162C10.5367 15.9426 10.201 15.6397 9.78664 15.6397C9.37231 15.6397 9.03659 15.9426 9.03659 16.3162C9.03659 16.6898 9.37231 16.9927 9.78664 16.9927C10.201 16.9927 10.5367 16.6898 10.5367 16.3162ZM12.2395 14.7851C12.2395 14.4091 11.9014 14.1038 11.4842 14.1038C11.0669 14.1038 10.7288 14.4091 10.7288 14.7851C10.7288 15.161 11.0669 15.4663 11.4842 15.4663C11.9014 15.4663 12.2395 15.161 12.2395 14.7851ZM14.3792 13.8021C14.3792 13.4262 14.0411 13.1209 13.6238 13.1209C13.2065 13.1209 12.8684 13.4256 12.8684 13.8021C12.8684 14.1787 13.2065 14.4834 13.6238 14.4834C14.0411 14.4834 14.3792 14.1787 14.3792 13.8021ZM16.6015 11.7335C16.6015 11.4311 16.3302 11.1864 15.9951 11.1864C15.66 11.1864 15.3887 11.4311 15.3887 11.7335C15.3887 12.0358 15.66 12.2805 15.9951 12.2805C16.3302 12.2805 16.6015 12.0358 16.6015 11.7335ZM18.9923 12.0055C18.9923 11.7008 18.7187 11.4537 18.3806 11.4537C18.0425 11.4537 17.7689 11.7008 17.7689 12.0055C17.7689 12.3102 18.0425 12.5572 18.3806 12.5572C18.7187 12.5572 18.9923 12.3102 18.9923 12.0055ZM21.2283 12.8031C21.2283 12.4984 20.9547 12.2514 20.6166 12.2514C20.2785 12.2514 20.0048 12.4984 20.0048 12.8031C20.0048 13.1078 20.2785 13.3549 20.6166 13.3549C20.9547 13.3549 21.2283 13.1078 21.2283 12.8031ZM23.1735 14.0777C23.1735 13.773 22.8998 13.5259 22.5617 13.5259C22.2237 13.5259 21.95 13.773 21.95 14.0777C21.95 14.3824 22.2237 14.6295 22.5617 14.6295C22.8998 14.6295 23.1735 14.3824 23.1735 14.0777ZM24.7061 15.7484C24.7061 15.4437 24.4324 15.1967 24.0943 15.1967C23.7563 15.1967 23.4826 15.4437 23.4826 15.7484C23.4826 16.0531 23.7563 16.3002 24.0943 16.3002C24.4324 16.3002 24.7061 16.0531 24.7061 15.7484ZM25.7304 17.7108C25.7304 17.4061 25.4567 17.159 25.1186 17.159C24.7806 17.159 24.5069 17.4061 24.5069 17.7108C24.5069 18.0155 24.7806 18.2625 25.1186 18.2625C25.4567 18.2625 25.7304 18.0155 25.7304 17.7108ZM26.1755 19.8406C26.1755 19.5383 25.9042 19.2936 25.569 19.2936C25.2339 19.2936 24.9626 19.5383 24.9626 19.8406C24.9626 20.1429 25.2339 20.3876 25.569 20.3876C25.9042 20.3876 26.1755 20.1429 26.1755 19.8406ZM7.01695 19.8406C7.01695 19.5437 6.75038 19.3031 6.42116 19.3031C6.09195 19.3031 5.82538 19.5437 5.82538 19.8406C5.82538 20.1376 6.09195 20.3781 6.42116 20.3781C6.75038 20.3781 7.01695 20.1376 7.01695 19.8406ZM7.46793 17.7108C7.46793 17.4138 7.20136 17.1733 6.87214 17.1733C6.54292 17.1733 6.27636 17.4138 6.27636 17.7108C6.27636 18.0077 6.54292 18.2483 6.87214 18.2483C7.20136 18.2483 7.46793 18.0077 7.46793 17.7108ZM8.49696 15.7484C8.49696 15.4491 8.22802 15.2062 7.89585 15.2062C7.56368 15.2062 7.29475 15.4491 7.29475 15.7484C7.29475 16.0478 7.56368 16.2907 7.89585 16.2907C8.22802 16.2907 8.49696 16.0478 8.49696 15.7484ZM10.0296 14.0777C10.0296 13.7784 9.76063 13.5354 9.42846 13.5354C9.09629 13.5354 8.82736 13.7784 8.82736 14.0777C8.82736 14.377 9.09629 14.62 9.42846 14.62C9.76063 14.62 10.0296 14.377 10.0296 14.0777ZM11.9801 12.8031C11.9801 12.5008 11.7088 12.2561 11.3736 12.2561C11.0385 12.2561 10.7672 12.5008 10.7672 12.8031C10.7672 13.1054 11.0385 13.3501 11.3736 13.3501C11.7088 13.3501 11.9801 13.1054 11.9801 12.8031ZM14.216 12.0055C14.216 11.7032 13.9447 11.4585 13.6096 11.4585C13.2745 11.4585 13.0032 11.7032 13.0032 12.0055C13.0032 12.3078 13.2745 12.5525 13.6096 12.5525C13.9447 12.5525 14.216 12.3078 14.216 12.0055ZM16.4526 10.0033C16.4526 9.77526 16.2475 9.59055 15.9951 9.59055C15.7427 9.59055 15.5376 9.77526 15.5376 10.0033C15.5376 10.2314 15.7427 10.4161 15.9951 10.4161C16.2475 10.4161 16.4526 10.2314 16.4526 10.0033ZM18.8458 10.2302C18.8458 10.0021 18.6407 9.81743 18.3883 9.81743C18.1359 9.81743 17.9308 10.0021 17.9308 10.2302C17.9308 10.4583 18.1359 10.643 18.3883 10.643C18.6407 10.643 18.8458 10.4583 18.8458 10.2302ZM21.1349 10.9008C21.1349 10.6727 20.9298 10.488 20.6774 10.488C20.4251 10.488 20.22 10.6727 20.22 10.9008C20.22 11.1288 20.4251 11.3135 20.6774 11.3135C20.9298 11.3135 21.1349 11.1288 21.1349 10.9008ZM23.2243 11.9859C23.2243 11.7554 23.0169 11.5683 22.7615 11.5683C22.5062 11.5683 22.2987 11.7554 22.2987 11.9859C22.2987 12.2163 22.5062 12.4034 22.7615 12.4034C23.0169 12.4034 23.2243 12.2163 23.2243 11.9859ZM25.0069 13.438C25.0069 13.21 24.8018 13.0253 24.5495 13.0253C24.2971 13.0253 24.092 13.21 24.092 13.438C24.092 13.6661 24.2971 13.8508 24.5495 13.8508C24.8018 13.8508 25.0069 13.6661 25.0069 13.438ZM26.4219 15.1937C26.4219 14.9656 26.2168 14.7809 25.9644 14.7809C25.7121 14.7809 25.507 14.9656 25.507 15.1937C25.507 15.4218 25.7121 15.6065 25.9644 15.6065C26.2168 15.6065 26.4219 15.4218 26.4219 15.1937ZM27.4007 17.1756C27.4007 16.9476 27.1956 16.7629 26.9432 16.7629C26.6909 16.7629 26.4858 16.9476 26.4858 17.1756C26.4858 17.4037 26.6909 17.5884 26.9432 17.5884C27.1956 17.5884 27.4007 17.4037 27.4007 17.1756ZM27.9008 19.2984C27.9008 19.0703 27.6957 18.8856 27.4433 18.8856C27.1909 18.8856 26.9858 19.0703 26.9858 19.2984C26.9858 19.5264 27.1909 19.7111 27.4433 19.7111C27.6957 19.7111 27.9008 19.5264 27.9008 19.2984ZM27.9008 21.4686C27.9008 21.2405 27.6957 21.0558 27.4433 21.0558C27.1909 21.0558 26.9858 21.2405 26.9858 21.4686C26.9858 21.6967 27.1909 21.8814 27.4433 21.8814C27.6957 21.8814 27.9008 21.6967 27.9008 21.4686ZM4.98844 21.4686C4.98844 21.2488 4.79103 21.0706 4.54692 21.0706C4.30282 21.0706 4.1054 21.2488 4.1054 21.4686C4.1054 21.6883 4.30282 21.8665 4.54692 21.8665C4.79103 21.8665 4.98844 21.6883 4.98844 21.4686ZM4.99376 19.2984C4.99376 19.0756 4.79339 18.8957 4.54692 18.8957C4.30045 18.8957 4.10009 19.0762 4.10009 19.2984C4.10009 19.5205 4.30045 19.701 4.54692 19.701C4.79339 19.701 4.99376 19.5205 4.99376 19.2984ZM5.4938 17.1756C5.4938 16.9529 5.29343 16.773 5.04696 16.773C4.80049 16.773 4.60012 16.9535 4.60012 17.1756C4.60012 17.3978 4.80049 17.5783 5.04696 17.5783C5.29343 17.5783 5.4938 17.3978 5.4938 17.1756ZM6.47259 15.1937C6.47259 14.971 6.27222 14.791 6.02575 14.791C5.77928 14.791 5.57891 14.9716 5.57891 15.1937C5.57891 15.4158 5.77928 15.5964 6.02575 15.5964C6.27222 15.5964 6.47259 15.4158 6.47259 15.1937ZM7.8929 13.438C7.8929 13.2129 7.69016 13.03 7.44074 13.03C7.19131 13.03 6.98858 13.2123 6.98858 13.438C6.98858 13.6637 7.19131 13.8461 7.44074 13.8461C7.69016 13.8461 7.8929 13.6637 7.8929 13.438ZM9.68084 11.9859C9.68084 11.7608 9.47811 11.5778 9.22868 11.5778C8.97926 11.5778 8.77652 11.7602 8.77652 11.9859C8.77652 12.2116 8.97926 12.3939 9.22868 12.3939C9.47811 12.3939 9.68084 12.2116 9.68084 11.9859ZM11.7649 10.9008C11.7649 10.6757 11.5622 10.4927 11.3127 10.4927C11.0633 10.4927 10.8606 10.6751 10.8606 10.9008C10.8606 11.1265 11.0633 11.3088 11.3127 11.3088C11.5622 11.3088 11.7649 11.1265 11.7649 10.9008ZM14.0594 10.2302C14.0594 10.0021 13.8543 9.81743 13.6019 9.81743C13.3495 9.81743 13.1444 10.0021 13.1444 10.2302C13.1444 10.4583 13.3495 10.643 13.6019 10.643C13.8543 10.643 14.0594 10.4583 14.0594 10.2302ZM16.2983 8.27321C16.2983 8.12235 16.1624 8 15.9951 8C15.8278 8 15.6919 8.12235 15.6919 8.27321C15.6919 8.42407 15.8278 8.54642 15.9951 8.54642C16.1624 8.54642 16.2983 8.42407 16.2983 8.27321ZM18.7015 8.46802C18.7015 8.31419 18.5632 8.19006 18.393 8.19006C18.2228 8.19006 18.0845 8.31478 18.0845 8.46802C18.0845 8.62125 18.2228 8.74598 18.393 8.74598C18.5632 8.74598 18.7015 8.62125 18.7015 8.46802ZM21.0226 9.04591C21.0226 8.89209 20.8843 8.76795 20.7141 8.76795C20.5439 8.76795 20.4056 8.89268 20.4056 9.04591C20.4056 9.19915 20.5439 9.32387 20.7141 9.32387C20.8843 9.32387 21.0226 9.19915 21.0226 9.04591ZM23.1918 9.98789C23.1918 9.83406 23.0535 9.70993 22.8833 9.70993C22.713 9.70993 22.5747 9.83465 22.5747 9.98789C22.5747 10.1411 22.713 10.2658 22.8833 10.2658C23.0535 10.2658 23.1918 10.1411 23.1918 9.98789ZM25.1399 11.2637C25.1399 11.1098 25.0016 10.9857 24.8314 10.9857C24.6612 10.9857 24.5229 11.1104 24.5229 11.2637C24.5229 11.4169 24.6612 11.5416 24.8314 11.5416C25.0016 11.5416 25.1399 11.4169 25.1399 11.2637ZM26.8038 12.8328C26.8038 12.679 26.6654 12.5549 26.4952 12.5549C26.325 12.5549 26.1867 12.6796 26.1867 12.8328C26.1867 12.9861 26.325 13.1108 26.4952 13.1108C26.6654 13.1108 26.8038 12.9861 26.8038 12.8328ZM28.1301 14.6449C28.1301 14.4911 27.9918 14.3669 27.8215 14.3669C27.6513 14.3669 27.513 14.4917 27.513 14.6449C27.513 14.7981 27.6513 14.9229 27.8215 14.9229C27.9918 14.9229 28.1301 14.7981 28.1301 14.6449ZM29.0764 16.6411C29.0764 16.4873 28.9381 16.3631 28.7678 16.3631C28.5976 16.3631 28.4593 16.4879 28.4593 16.6411C28.4593 16.7943 28.5976 16.9191 28.7678 16.9191C28.9381 16.9191 29.0764 16.7943 29.0764 16.6411ZM29.6119 18.7579C29.6119 18.6041 29.4736 18.4799 29.3033 18.4799C29.1331 18.4799 28.9948 18.6046 28.9948 18.7579C28.9948 18.9111 29.1331 19.0358 29.3033 19.0358C29.4736 19.0358 29.6119 18.9111 29.6119 18.7579ZM29.7147 20.9269C29.7147 20.7761 29.5788 20.6537 29.4115 20.6537C29.2442 20.6537 29.1083 20.7761 29.1083 20.9269C29.1083 21.0778 29.2442 21.2001 29.4115 21.2001C29.5788 21.2001 29.7147 21.0778 29.7147 20.9269ZM2.87128 20.9269C2.87128 20.7814 2.74006 20.6632 2.57871 20.6632C2.41735 20.6632 2.28613 20.7814 2.28613 20.9269C2.28613 21.0724 2.41735 21.1906 2.57871 21.1906C2.74006 21.1906 2.87128 21.0724 2.87128 20.9269ZM2.98476 18.7579C2.98476 18.6094 2.85118 18.4894 2.68687 18.4894C2.52256 18.4894 2.38898 18.6094 2.38898 18.7579C2.38898 18.9064 2.52256 19.0263 2.68687 19.0263C2.85118 19.0263 2.98476 18.9064 2.98476 18.7579ZM3.52026 16.6411C3.52026 16.4926 3.38668 16.3727 3.22237 16.3727C3.05805 16.3727 2.92447 16.4926 2.92447 16.6411C2.92447 16.7896 3.05805 16.9096 3.22237 16.9096C3.38668 16.9096 3.52026 16.7896 3.52026 16.6411ZM4.46654 14.6449C4.46654 14.4964 4.33296 14.3764 4.16865 14.3764C4.00433 14.3764 3.87076 14.4964 3.87076 14.6449C3.87076 14.7934 4.00433 14.9134 4.16865 14.9134C4.33296 14.9134 4.46654 14.7934 4.46654 14.6449ZM5.79287 12.8328C5.79287 12.6843 5.65929 12.5644 5.49498 12.5644C5.33067 12.5644 5.19709 12.6849 5.19709 12.8328C5.19709 12.9807 5.33067 13.1013 5.49498 13.1013C5.65929 13.1013 5.79287 12.9813 5.79287 12.8328ZM7.46202 11.2637C7.46202 11.1128 7.32607 10.9904 7.1588 10.9904C6.99153 10.9904 6.85559 11.1128 6.85559 11.2637C6.85559 11.4145 6.99153 11.5369 7.1588 11.5369C7.32607 11.5369 7.46202 11.4145 7.46202 11.2637ZM9.41014 9.98789C9.41014 9.83703 9.27419 9.71468 9.10693 9.71468C8.93966 9.71468 8.80371 9.83703 8.80371 9.98789C8.80371 10.1387 8.93966 10.2611 9.10693 10.2611C9.27419 10.2611 9.41014 10.1387 9.41014 9.98789ZM11.5793 9.04591C11.5793 8.89505 11.4434 8.7727 11.2761 8.7727C11.1088 8.7727 10.9729 8.89505 10.9729 9.04591C10.9729 9.19677 11.1088 9.31912 11.2761 9.31912C11.4434 9.31912 11.5793 9.19677 11.5793 9.04591ZM13.9057 8.46802C13.9057 8.31419 13.7674 8.19006 13.5972 8.19006C13.427 8.19006 13.2887 8.31478 13.2887 8.46802C13.2887 8.62125 13.427 8.74598 13.5972 8.74598C13.7674 8.74598 13.9057 8.62125 13.9057 8.46802ZM26.8765 19.5294C26.8883 19.5294 26.8977 19.5211 26.8977 19.5104C26.8977 19.4997 26.8883 19.4914 26.8765 19.4914C26.8646 19.4914 26.8552 19.4997 26.8552 19.5104C26.8552 19.5211 26.8646 19.5294 26.8765 19.5294ZM26.0525 21.5707C26.0643 21.5707 26.0738 21.5624 26.0738 21.5517C26.0738 21.541 26.0643 21.5327 26.0525 21.5327C26.0407 21.5327 26.0312 21.541 26.0312 21.5517C26.0312 21.5624 26.0407 21.5707 26.0525 21.5707Z" fill="#F8BF14"/>
<path d="M16.7333 18.4771C16.7333 18.4871 16.7363 18.4967 16.7363 18.5067C16.7363 18.8904 16.4047 19.2016 15.9957 19.2016C15.5867 19.2016 15.2551 18.8904 15.2551 18.5067C15.2551 18.4967 15.2581 18.4871 15.2581 18.4771C14.5411 18.7402 14.0352 19.3733 14.0352 20.1145C14.0352 21.0909 14.9129 21.8827 15.9957 21.8827C17.0785 21.8827 17.9562 21.0909 17.9562 20.1145C17.9562 19.3733 17.4503 18.7402 16.7333 18.4771Z" fill="#F8BF14"/>
</svg>
